<svg width="70" height="70" viewBox="0 0 70 70" fill="none" xmlns="http://www.w3.org/2000/svg">
<path fill-rule="evenodd" clip-rule="evenodd" d="M35 0C15.67 0 0 15.67 0 35C0 54.33 15.67 70 35 70C54.33 70 70 54.33 70 35C70 15.67 54.33 0 35 0ZM21.7367 15.1667H49.43C51.7653 15.1667 53.6667 17.045 53.6667 19.3725V56L49.2233 52.1208L46.7227 49.8342L44.0773 47.4046L45.1727 51.1817H21.7367C19.4013 51.1817 17.5 49.3033 17.5 46.9758V19.3725C17.5 17.045 19.4013 15.1667 21.7367 15.1667Z" fill="#A2BE91"/>
<path fill-rule="evenodd" clip-rule="evenodd" d="M41.4527 41.8308C41.4527 41.8308 40.7087 40.9529 40.0887 40.1771C42.796 39.4217 43.8293 37.7475 43.8293 37.7475C42.982 38.2987 42.176 38.6867 41.4527 38.9521C40.4193 39.3808 39.4273 39.6667 38.456 39.83C36.472 40.1975 34.6533 40.0954 33.1033 39.8096C31.9253 39.585 30.9127 39.2583 30.0653 38.9317C29.59 38.7479 29.0733 38.5233 28.5567 38.2375C28.5257 38.2171 28.4947 38.2018 28.4637 38.1865L28.4637 38.1865C28.4327 38.1711 28.4017 38.1558 28.3707 38.1354C28.3293 38.115 28.3087 38.0946 28.288 38.0742C27.916 37.87 27.7093 37.7271 27.7093 37.7271C27.7093 37.7271 28.7013 39.3604 31.326 40.1362C30.706 40.9121 29.9413 41.8308 29.9413 41.8308C25.374 41.6879 23.638 38.7275 23.638 38.7275C23.638 32.1533 26.614 26.8246 26.614 26.8246C29.59 24.6196 32.4213 24.6808 32.4213 24.6808L32.628 24.9258C28.908 25.9875 27.1927 27.6004 27.1927 27.6004C27.1927 27.6004 27.6473 27.3554 28.412 27.0083C30.6233 26.0487 32.38 25.7833 33.1033 25.7221L33.1497 25.7143C33.2539 25.6968 33.3464 25.6813 33.4547 25.6813C34.7153 25.5179 36.1413 25.4771 37.6293 25.6404C39.5927 25.865 41.7007 26.4367 43.85 27.6004C43.85 27.6004 42.2173 26.0692 38.704 25.0075L38.9933 24.6808C38.9933 24.6808 41.8247 24.6196 44.8007 26.8246C44.8007 26.8246 47.7767 32.1533 47.7767 38.7275C47.7767 38.7275 46.02 41.6879 41.4527 41.8308ZM32.4247 32.6667C31.256 32.6667 30.3333 33.7177 30.3333 35C30.3333 36.2823 31.2765 37.3333 32.4247 37.3333C33.5934 37.3333 34.5161 36.2823 34.5161 35C34.5366 33.7177 33.5934 32.6667 32.4247 32.6667ZM37.8172 35C37.8172 33.7177 38.7399 32.6667 39.9086 32.6667C41.0773 32.6667 42 33.7177 42 35C42 36.2823 41.0773 37.3333 39.9086 37.3333C38.7604 37.3333 37.8172 36.2823 37.8172 35Z" fill="#A2BE91"/>
</svg>
