<svg width="70" height="70" viewBox="0 0 70 70" fill="none" xmlns="http://www.w3.org/2000/svg">
<path fill-rule="evenodd" clip-rule="evenodd" d="M35 0C15.67 0 0 15.67 0 35C0 54.33 15.67 70 35 70C54.33 70 70 54.33 70 35C70 15.67 54.33 0 35 0ZM16.8024 28.9885H24.7341V52.8202H16.8024V28.9885ZM25.2565 21.6164C25.205 19.2798 23.5341 17.5 20.8207 17.5C18.1073 17.5 16.3333 19.2798 16.3333 21.6164C16.3333 23.9047 18.0548 25.7357 20.7177 25.7357H20.7684C23.5341 25.7357 25.2565 23.9047 25.2565 21.6164ZM44.2067 28.4289C49.4261 28.4289 53.3391 31.8358 53.3391 39.1558L53.3388 52.8202H45.4073V40.0702C45.4073 36.8677 44.2596 34.6824 41.3882 34.6824C39.1969 34.6824 37.8917 36.1556 37.3184 37.5785C37.1087 38.0885 37.0572 38.799 37.0572 39.5113V52.8208H29.1245C29.1245 52.8208 29.2291 31.2254 29.1245 28.9892H37.0572V32.3647C38.11 30.742 39.9954 28.4289 44.2067 28.4289Z" fill="#A2BE91"/>
</svg>
