<svg width="70" height="69" viewBox="0 0 70 69" fill="none" xmlns="http://www.w3.org/2000/svg">
<path fill-rule="evenodd" clip-rule="evenodd" d="M0 34.5C0 15.4462 15.67 0 35 0C54.33 0 70 15.4462 70 34.5C70 53.5538 54.33 69 35 69C15.67 69 0 53.5538 0 34.5ZM29.3715 25.2093L18.1657 19.7518C18.0698 19.705 17.9784 19.683 17.8958 19.683C17.7782 19.683 17.6787 19.7281 17.6087 19.8103C17.5402 19.8907 17.5 20.007 17.5 20.1525V43.5816C17.5 43.9803 17.7996 44.4524 18.1657 44.6307L28.5212 49.674C28.6651 49.7442 28.8021 49.7774 28.926 49.7774C29.2749 49.7774 29.5196 49.5144 29.5196 49.073V25.4428C29.5196 25.344 29.4623 25.2535 29.3715 25.2093ZM52.5593 49.6663L42.4967 44.7656L53.5578 27.2579V49.0651C53.5578 49.6633 53.1085 49.9337 52.5593 49.6663ZM30.582 26.963V38.97L41.5394 44.3065L30.582 26.963ZM41.8722 19.5897L53.2944 25.1526C53.4367 25.2219 53.4873 25.395 53.404 25.527L42.163 43.3194L34.3041 30.8799L41.3443 19.7363C41.4191 19.618 41.5574 19.55 41.6963 19.55C41.6983 19.55 41.7002 19.5503 41.7022 19.5506C41.7039 19.5509 41.7056 19.5512 41.7074 19.5512C41.7639 19.5527 41.8203 19.5644 41.8722 19.5897Z" fill="#A2BE91"/>
</svg>
